<?xml version="1.0" encoding="UTF-8" standalone="no"?>
<svg width="481px" height="122px" viewBox="0 0 481 122" version="1.1" xmlns="http://www.w3.org/2000/svg" xmlns:xlink="http://www.w3.org/1999/xlink" xmlns:sketch="http://www.bohemiancoding.com/sketch/ns">
    <!-- Generator: Sketch 3.2.2 (9983) - http://www.bohemiancoding.com/sketch -->
    <title>mozilla-wordmark</title>
    <desc>Created with Sketch.</desc>
    <defs></defs>
    <g id="Page-1" stroke="none" stroke-width="1" fill="none" fill-rule="evenodd" sketch:type="MSPage">
        <g id="Full-Wordmark" sketch:type="MSArtboardGroup" transform="translate(-219.000000, -119.000000)" fill="#FFFFFF">
            <g id="mozilla-wordmark" sketch:type="MSLayerGroup" transform="translate(219.000000, 119.000000)">
                <path d="M20.6349189,34.8605837 C22.0890189,37.0471588 22.730328,38.997588 23.5425813,43.1126009 C29.2294292,37.7058541 36.2419003,34.8605837 43.8956805,34.8605837 C50.8081653,34.8605837 56.4810367,37.0471588 60.8707522,41.5098455 C62.0533843,42.6282661 63.1940868,44.0713219 64.1778217,45.4876738 C71.8165502,37.8666009 78.6580771,34.8605837 87.8229387,34.8605837 C94.349993,34.8605837 100.536234,36.761794 104.313669,39.9275107 C109.031296,43.8985322 110.527326,48.6727639 110.527326,59.7878541 L110.527326,117.616378 L89.3195059,117.616378 L89.3195059,63.9311416 C89.3195059,54.1994163 88.1368737,52.3175794 82.4494883,52.3175794 C78.3731703,52.3175794 72.6438551,55.0256652 67.9402046,59.1553391 L67.9402046,117.616378 L47.2446797,117.616378 L47.2446797,64.6940343 C47.2446797,54.5465665 45.7346734,52.1641631 39.6629325,52.1641631 C35.6290818,52.1641631 30.0416825,54.1994163 25.3385695,58.3500343 L25.3385695,117.616378 L3.98775884,117.616378 L3.98775884,60.8900429 C3.98775884,49.1450558 3.16099146,44.0713219 0.866685104,40.080927 L20.6349189,34.8605837" id="Fill-1" sketch:type="MSShapeGroup"></path>
                <path d="M149.310134,58.6689099 C147.813029,62.9729442 147.015828,68.686 147.015828,76.7935021 C147.015828,86.1429957 147.998487,93.1687296 149.779961,97.2842661 C151.746894,101.734386 156.665031,103.955519 160.868213,103.955519 C170.333033,103.955519 174.38086,95.7024549 174.38086,76.4819571 C174.38086,65.5129528 172.912246,58.3500343 169.991145,54.6858455 C167.89466,52.0060343 164.489217,50.4100858 160.555353,50.4100858 C155.324894,50.4100858 151.077094,53.5742318 149.310134,58.6689099 L149.310134,58.6689099 Z M188.604162,46.92497 C195.274745,54.5465665 198.253903,63.4379056 198.253903,76.6207124 C198.253903,90.6004464 194.961885,100.150481 187.763418,108.078386 C181.435799,115.061708 173.097704,119.365742 160.241418,119.365742 C137.537031,119.365742 122.728326,102.837622 122.728326,77.2726009 C122.728326,51.6850644 137.693461,34.6794163 160.241418,34.6794163 C172.14246,34.6794163 181.435799,38.6645751 188.604162,46.92497 L188.604162,46.92497 Z" id="Fill-2" sketch:type="MSShapeGroup"></path>
                <path d="M268.547944,36.2769356 L268.547944,50.893897 L231.662723,102.837622 L269.988068,102.837622 L264.757071,117.616378 L203.299979,117.616378 L203.299979,104.434618 L242.566591,51.2153906 L206.576945,51.2153906 L206.576945,36.2769356 L268.547944,36.2769356" id="Fill-3" sketch:type="MSShapeGroup"></path>
                <path d="M302.942113,34.3605408 L302.942113,117.616378 L281.091371,117.616378 L281.091371,37.7058541 L302.942113,34.3605408 L302.942113,34.3605408 Z M305.506812,13.882867 C305.506812,21.2007725 299.534519,27.044206 291.981263,27.044206 C284.668833,27.044206 278.655149,21.2007725 278.655149,13.882867 C278.655149,6.58066953 284.869343,0.687493562 292.350029,0.687493562 C299.676973,0.687493562 305.506812,6.58066953 305.506812,13.882867 L305.506812,13.882867 Z" id="Fill-4" sketch:type="MSShapeGroup"></path>
                <path d="M342.734996,21.2007725 L342.734996,84.5753219 C342.734996,98.5754764 342.906478,100.457313 344.218125,102.678446 C345.044354,104.121502 346.811314,104.900103 348.636331,104.900103 C349.420093,104.900103 349.889921,104.900103 351.07309,104.607408 L354.80752,117.302738 C351.07309,118.725897 346.498454,119.519159 341.767388,119.519159 C332.445022,119.519159 324.948209,115.241305 322.352869,108.425013 C320.714386,104.288532 320.357983,101.734386 320.357983,90.1422918 L320.357983,29.4313219 C320.357983,18.7974249 320.074152,12.3000086 319.259748,4.96325322 L341.609883,0.041888412 C342.393108,4.48520172 342.734996,9.73224893 342.734996,21.2007725" id="Fill-5" sketch:type="MSShapeGroup"></path>
                <path d="M388.058298,21.2007725 L388.058298,84.5753219 C388.058298,98.5754764 388.244831,100.457313 389.584969,102.678446 C390.353679,104.121502 392.120639,104.900103 393.946193,104.900103 C394.772423,104.900103 395.271279,104.900103 396.42542,104.607408 L400.146411,117.302738 C396.42542,118.725897 391.849709,119.519159 387.103591,119.519159 C377.797889,119.519159 370.286562,115.241305 367.678321,108.425013 C366.01081,104.288532 365.739342,101.734386 365.739342,90.1422918 L365.739342,29.4313219 C365.739342,18.7974249 365.412505,12.3000086 364.570686,4.96325322 L386.89018,0.041888412 C387.78898,4.48520172 388.058298,9.73224893 388.058298,21.2007725" id="Fill-6" sketch:type="MSShapeGroup"></path>
                <path d="M450.671682,82.0347897 C435.563556,82.0347897 430.262139,84.7140773 430.262139,94.4458026 C430.262139,100.775665 434.395438,105.065562 439.938757,105.065562 C444.001099,105.065562 448.106983,102.997322 451.342557,99.5127296 L451.698959,82.0347897 L450.671682,82.0347897 L450.671682,82.0347897 Z M422.350867,39.3023262 C430.476088,35.9564893 437.461143,34.5401373 445.156853,34.5401373 C459.210286,34.5401373 468.816484,39.6086352 472.107964,48.6727639 C473.191685,52.0060343 473.690541,54.5465665 473.591093,63.2912961 L473.062671,90.6004464 L473.062671,92.0429785 C473.062671,100.775665 474.545799,104.121502 480.933625,108.717708 L469.329854,121.766996 C464.225721,119.684618 459.680651,116.019906 457.555676,111.902798 C455.945683,113.506601 454.135181,115.061708 452.481646,116.185888 C448.434357,119.046867 442.520121,120.642815 435.677519,120.642815 C417.079016,120.642815 406.973962,111.410086 406.973962,95.23697 C406.973962,76.1416137 420.542515,67.2345665 447.108196,67.2345665 C448.705287,67.2345665 450.215831,67.2345665 452.026333,67.4157339 L452.026333,64.0981717 C452.026333,55.0256652 450.215831,52.0060343 442.177695,52.0060343 C435.250696,52.0060343 427.026565,55.323073 418.075114,61.2162489 L408.768337,45.9599657 C413.201057,43.2518798 416.46566,41.6768755 422.350867,39.3023262 L422.350867,39.3023262 Z" id="Fill-7" sketch:type="MSShapeGroup"></path>
            </g>
        </g>
    </g>
</svg>