<?xml version="1.0" encoding="UTF-8" standalone="no"?>
<svg
   xmlns:dc="http://purl.org/dc/elements/1.1/"
   xmlns:cc="http://creativecommons.org/ns#"
   xmlns:rdf="http://www.w3.org/1999/02/22-rdf-syntax-ns#"
   xmlns:svg="http://www.w3.org/2000/svg"
   xmlns="http://www.w3.org/2000/svg"
   xmlns:sodipodi="http://sodipodi.sourceforge.net/DTD/sodipodi-0.dtd"
   xmlns:inkscape="http://www.inkscape.org/namespaces/inkscape"
   width="190"
   height="130"
   version="1.1"
   id="svg38"
   sodipodi:docname="ohm-logo-solo.svg"
   inkscape:version="1.0.1 (3bc2e813f5, 2020-09-07, custom)">
  <defs
     id="defs42" />
  <sodipodi:namedview
     pagecolor="#ffffff"
     bordercolor="#666666"
     borderopacity="1"
     objecttolerance="10"
     gridtolerance="10"
     guidetolerance="10"
     inkscape:pageopacity="0"
     inkscape:pageshadow="2"
     inkscape:window-width="1920"
     inkscape:window-height="996"
     id="namedview40"
     showgrid="false"
     inkscape:zoom="2.7423581"
     inkscape:cx="114"
     inkscape:cy="114.5"
     inkscape:window-x="1920"
     inkscape:window-y="0"
     inkscape:window-maximized="1"
     inkscape:current-layer="svg38"
     inkscape:document-rotation="0" />
  <metadata
     id="metadata523">image/svg+xml<rdf:RDF>
  <cc:Work
     rdf:about="">
    <dc:format>image/svg+xml</dc:format>
    <dc:type
       rdf:resource="http://purl.org/dc/dcmitype/StillImage" />
    <dc:title></dc:title>
  </cc:Work>
</rdf:RDF>
</metadata>
  <style
     type="text/css"
     id="style3">.st0{fill:#FFFFFF;}
	.st1{fill:#E8AD35;}
	.st2{fill:#010101;stroke:#F9F9FA;stroke-width:4;stroke-miterlimit:10;}
	.st3{fill:none;}
	.st4{font-family:'MyriadPro-Regular';}
	.st5{font-size:18px;}
	.st6{fill:none;stroke:#000000;stroke-width:0.5;stroke-miterlimit:10;}
	.st7{fill:#AA7C2C;}
	.st8{fill:#E8AD36;}
	.st9{fill:#010101;}
	.st10{font-family:'Roboto-Regular';}
	.st11{font-size:14px;}
	.st12{opacity:0.6;fill:#E8C178;}
	.st13{fill:none;stroke:#E8AD36;stroke-width:4;stroke-miterlimit:10;}
	.st14{fill:none;stroke:#E8AD36;stroke-width:3;stroke-linecap:round;stroke-miterlimit:10;}
	.st15{fill:none;stroke:#E8AD36;stroke-width:4;stroke-linecap:round;stroke-miterlimit:10;}
	.st16{opacity:0.4;fill:#E8AD36;}
	.st17{opacity:0.9;fill:#E8AD36;}
	.st18{opacity:0.72;}
	.st19{opacity:0.7;}
	.st20{fill:#E8C178;}
	.st21{opacity:0.6;fill:#E8AD36;}
	.st22{fill:none;stroke:#E8AD36;stroke-width:3;stroke-miterlimit:10;}
	.st23{fill:#F0CF97;}
	.st24{font-size:12px;}
	.st25{fill:none;stroke:#000000;stroke-miterlimit:10;}
	.st26{opacity:0.8;}</style>
  <g
     id="g8">
    <title
       id="title5">background</title>
    <rect
       fill="none"
       id="canvas_background"
       height="231"
       width="230"
       y="-1"
       x="-1" />
  </g>
  <g
     id="g52"
     transform="translate(-20.015582,-49.930265)">
    <polygon
       fill="#010101"
       stroke="#f9f9fa"
       stroke-width="4"
       stroke-miterlimit="10"
       id="polygon8"
       points="53.702362,122.75156 53.702362,130.04153 45.25235,153.09155 157.48236,153.09155 158.31238,130.50156 184.17236,130.04153 184.17236,99.741547 159.66235,99.741547 159.66235,76.691559 53.702362,76.691559 53.702362,99.741547 53.702362,103.27155 "
       class="st2" />
    <g
       id="g48">
      <g
         id="g46">
        <path
           fill="#ffffff"
           id="path10"
           d="m 61.47236,93.39154 c 0,-1.77 0.1,-3.23 0.31,-4.36 0.2,-1.13 0.56,-2.02 1.08,-2.66 0.51,-0.64 1.22,-1.08 2.13,-1.33 0.9,-0.25 2.07,-0.37 3.51,-0.37 1.42,0 2.58,0.12 3.5,0.37 0.91,0.25 1.63,0.69 2.14,1.33 0.51,0.64 0.87,1.52 1.06,2.66 0.19,1.14 0.29,2.59 0.29,4.36 0,1.77 -0.1,3.22 -0.29,4.35 -0.2,1.13 -0.55,2.01 -1.06,2.65 -0.51,0.64 -1.23,1.08 -2.14,1.33 -0.91,0.25 -2.08,0.37 -3.5,0.37 -1.44,0 -2.61,-0.12 -3.51,-0.37 -0.9,-0.25 -1.61,-0.69 -2.13,-1.33 -0.51,-0.64 -0.87,-1.52 -1.08,-2.65 -0.2,-1.12 -0.31,-2.57 -0.31,-4.35 z m 3.51,5.91 h 4.79 c 0.83,0 1.41,-0.13 1.74,-0.4 0.33,-0.27 0.49,-0.74 0.49,-1.41 v -10.03 h -4.81 c -0.83,0 -1.41,0.13 -1.73,0.4 -0.32,0.27 -0.48,0.74 -0.48,1.41 z"
           class="st0" />
        <path
           fill="#ffffff"
           id="path12"
           d="m 79.19236,106.32154 v -17.93 h 1.54 l 1.73,2.87 v 14.71 z m 6.73,-4.23 c -1.1,0 -2.01,-0.1 -2.73,-0.31 -0.72,-0.2 -1.28,-0.57 -1.68,-1.09 -0.4,-0.52 -0.68,-1.24 -0.84,-2.15 -0.16,-0.91 -0.24,-2.08 -0.24,-3.5 0,-1.4 0.08,-2.55 0.24,-3.46 0.16,-0.91 0.44,-1.61 0.84,-2.11 0.4,-0.5 0.96,-0.86 1.68,-1.06 0.72,-0.2 1.63,-0.31 2.73,-0.31 0.98,0 1.79,0.11 2.43,0.33 0.65,0.22 1.16,0.59 1.53,1.1 0.37,0.51 0.64,1.22 0.8,2.13 0.16,0.91 0.24,2.03 0.24,3.38 0,1.37 -0.08,2.5 -0.24,3.4 -0.16,0.9 -0.43,1.63 -0.81,2.17 -0.38,0.54 -0.9,0.92 -1.54,1.14 -0.66,0.23 -1.46,0.34 -2.41,0.34 z m -3.46,-2.61 h 3.8 c 0.46,0 0.78,-0.04 0.94,-0.13 0.17,-0.09 0.25,-0.27 0.25,-0.53 v -8.11 h -3.83 c -0.44,0 -0.75,0.04 -0.92,0.12 -0.17,0.08 -0.25,0.23 -0.25,0.44 v 8.21 z"
           class="st0" />
        <path
           fill="#ffffff"
           id="path14"
           d="m 99.35236,101.98154 c -1.06,0 -1.96,-0.12 -2.69,-0.35 -0.73,-0.23 -1.3,-0.61 -1.72,-1.14 -0.42,-0.53 -0.72,-1.24 -0.92,-2.13 -0.2,-0.89 -0.29,-1.99 -0.29,-3.32 0,-1.74 0.19,-3.11 0.57,-4.12 0.38,-1.01 1.01,-1.73 1.88,-2.17 0.87,-0.43 2.04,-0.65 3.51,-0.65 1.44,0 2.55,0.12 3.35,0.36 0.8,0.24 1.36,0.66 1.68,1.25 0.32,0.59 0.48,1.43 0.48,2.51 0,0.89 -0.1,1.61 -0.31,2.17 -0.2,0.56 -0.59,0.99 -1.16,1.29 -0.57,0.3 -1.37,0.51 -2.42,0.62 -1.05,0.12 -2.42,0.17 -4.12,0.17 h -0.8 v -1.94 h 3.75 c 0.82,0 1.37,-0.1 1.68,-0.31 0.3,-0.2 0.45,-0.59 0.45,-1.16 v -2.39 h -2.95 c -0.82,0 -1.37,0.1 -1.68,0.29 -0.3,0.2 -0.45,0.57 -0.45,1.12 v 7.13 c 0.64,0.18 1.52,0.27 2.63,0.27 0.73,0 1.45,-0.05 2.17,-0.15 0.72,-0.1 1.54,-0.27 2.46,-0.52 l 0.4,2.34 c -0.71,0.27 -1.55,0.47 -2.53,0.61 -0.97,0.15 -1.96,0.22 -2.97,0.22 z"
           class="st0" />
        <path
           fill="#ffffff"
           id="path16"
           d="m 109.05236,101.69154 v -13.3 h 1.54 l 0.85,1.33 c 0.69,-0.55 1.45,-0.96 2.27,-1.22 0.82,-0.27 1.75,-0.4 2.78,-0.4 1.24,0 2.19,0.21 2.83,0.62 0.65,0.42 0.97,1.02 0.97,1.82 v 11.14 h -3.27 v -10.9 h -2.74 c -0.76,0 -1.28,0.1 -1.56,0.29 -0.28,0.2 -0.41,0.55 -0.41,1.06 v 9.55 h -3.26 z"
           class="st0" />
        <path
           fill="#ffffff"
           id="path18"
           d="m 65.38236,122.65154 h -3.27 v -16.62 h 3.27 z m 6.68,-7 h -7.1 v -2.5 h 7.1 z m -0.43,-9.63 h 3.27 v 16.62 h -3.27 z"
           class="st0" />
        <path
           fill="#ffffff"
           id="path20"
           d="m 83.07236,122.94154 c -1.49,0 -2.56,-0.32 -3.22,-0.96 -0.66,-0.64 -0.98,-1.69 -0.98,-3.16 0,-0.89 0.1,-1.61 0.31,-2.17 0.2,-0.56 0.57,-0.99 1.09,-1.29 0.52,-0.3 1.28,-0.51 2.27,-0.62 0.99,-0.12 2.29,-0.17 3.88,-0.17 h 1.3 v 1.94 h -3.78 c -0.82,0 -1.37,0.1 -1.65,0.31 -0.28,0.2 -0.43,0.59 -0.43,1.16 v 2.58 h 2.98 c 0.8,0 1.34,-0.1 1.64,-0.31 0.29,-0.2 0.44,-0.57 0.44,-1.1 v -7.31 c -0.57,-0.18 -1.37,-0.27 -2.39,-0.27 -0.71,0 -1.45,0.05 -2.23,0.16 -0.78,0.11 -1.59,0.27 -2.42,0.51 l -0.43,-2.34 c 0.5,-0.18 1.05,-0.33 1.66,-0.45 0.61,-0.12 1.25,-0.22 1.93,-0.28 0.67,-0.06 1.33,-0.09 1.97,-0.09 1.26,0 2.27,0.13 3.02,0.39 0.75,0.26 1.3,0.67 1.65,1.25 0.35,0.58 0.52,1.34 0.52,2.3 v 9.65 h -1.57 l -0.85,-1.33 c -1.28,1.06 -2.85,1.6 -4.71,1.6 z"
           class="st0" />
        <path
           fill="#ffffff"
           id="path22"
           d="m 96.47236,109.35154 1.04,2.02 c 0.74,-0.67 1.41,-1.2 1.99,-1.58 0.58,-0.38 1.16,-0.66 1.73,-0.84 l 0.29,3.19 c -0.35,0.09 -0.74,0.22 -1.16,0.4 -0.42,0.18 -0.82,0.36 -1.21,0.56 -0.39,0.2 -0.72,0.4 -0.98,0.61 v 8.94 h -3.27 v -13.3 z"
           class="st0" />
        <path
           fill="#ffffff"
           id="path24"
           d="m 108.79236,109.06154 c 1.12,0 2.03,0.1 2.74,0.31 0.71,0.2 1.26,0.56 1.66,1.06 0.4,0.5 0.68,1.21 0.84,2.11 0.16,0.9 0.24,2.06 0.24,3.46 0,1.44 -0.08,2.61 -0.24,3.52 -0.16,0.91 -0.44,1.63 -0.84,2.14 -0.4,0.51 -0.95,0.88 -1.66,1.09 -0.71,0.21 -1.62,0.31 -2.74,0.29 -0.98,-0.02 -1.79,-0.13 -2.43,-0.35 -0.65,-0.21 -1.16,-0.58 -1.53,-1.12 -0.37,-0.53 -0.64,-1.25 -0.8,-2.15 -0.16,-0.9 -0.24,-2.05 -0.24,-3.43 0,-1.35 0.08,-2.47 0.24,-3.38 0.16,-0.91 0.43,-1.62 0.81,-2.14 0.38,-0.52 0.9,-0.9 1.54,-1.12 0.65,-0.21 1.45,-0.31 2.41,-0.29 z m 3.45,2.6 h -3.8 c -0.46,0 -0.78,0.04 -0.94,0.13 -0.17,0.09 -0.25,0.27 -0.25,0.53 v 8.11 h 3.83 c 0.46,0 0.77,-0.04 0.93,-0.13 0.16,-0.09 0.24,-0.27 0.24,-0.53 v -8.11 z m 3.28,-6.94 v 17.93 h -1.54 l -1.73,-2.87 v -14.71 z"
           class="st0" />
        <path
           fill="#ffffff"
           id="path26"
           d="m 121.45236,122.65154 -3.11,-13.3 h 3.22 l 2.26,10.48 h 0.27 l 2.29,-10.48 h 2.53 l -3.01,13.3 z m 8.35,0 -3.03,-13.3 h 2.53 l 2.31,10.48 h 0.27 l 2.23,-10.48 h 3.22 l -3.08,13.3 z"
           class="st0" />
        <path
           fill="#ffffff"
           id="path28"
           d="m 143.49236,122.94154 c -1.49,0 -2.56,-0.32 -3.22,-0.96 -0.66,-0.64 -0.98,-1.69 -0.98,-3.16 0,-0.89 0.1,-1.61 0.31,-2.17 0.2,-0.56 0.57,-0.99 1.09,-1.29 0.52,-0.3 1.28,-0.51 2.27,-0.62 0.99,-0.12 2.29,-0.17 3.88,-0.17 h 1.3 v 1.94 h -3.78 c -0.82,0 -1.37,0.1 -1.65,0.31 -0.28,0.2 -0.43,0.59 -0.43,1.16 v 2.58 h 2.98 c 0.8,0 1.34,-0.1 1.64,-0.31 0.29,-0.2 0.44,-0.57 0.44,-1.1 v -7.31 c -0.57,-0.18 -1.37,-0.27 -2.39,-0.27 -0.71,0 -1.45,0.05 -2.23,0.16 -0.78,0.11 -1.59,0.27 -2.42,0.51 l -0.43,-2.34 c 0.5,-0.18 1.05,-0.33 1.66,-0.45 0.61,-0.12 1.25,-0.22 1.93,-0.28 0.67,-0.06 1.33,-0.09 1.97,-0.09 1.26,0 2.27,0.13 3.02,0.39 0.75,0.26 1.3,0.67 1.65,1.25 0.35,0.58 0.52,1.34 0.52,2.3 v 9.65 h -1.57 l -0.85,-1.33 c -1.28,1.06 -2.84,1.6 -4.71,1.6 z"
           class="st0" />
        <path
           fill="#ffffff"
           id="path30"
           d="m 156.90236,109.35154 1.04,2.02 c 0.74,-0.67 1.41,-1.2 1.99,-1.58 0.58,-0.38 1.16,-0.66 1.73,-0.84 l 0.29,3.19 c -0.35,0.09 -0.74,0.22 -1.16,0.4 -0.42,0.18 -0.82,0.36 -1.21,0.56 -0.39,0.2 -0.72,0.4 -0.98,0.61 v 8.94 h -3.27 v -13.3 z"
           class="st0" />
        <path
           fill="#ffffff"
           id="path32"
           d="m 169.82236,122.94154 c -1.06,0 -1.96,-0.12 -2.69,-0.35 -0.73,-0.23 -1.3,-0.61 -1.72,-1.14 -0.42,-0.53 -0.72,-1.24 -0.92,-2.13 -0.2,-0.89 -0.29,-1.99 -0.29,-3.32 0,-1.74 0.19,-3.11 0.57,-4.12 0.38,-1.01 1.01,-1.73 1.88,-2.17 0.87,-0.43 2.04,-0.65 3.51,-0.65 1.44,0 2.55,0.12 3.35,0.36 0.8,0.24 1.36,0.66 1.68,1.25 0.32,0.59 0.48,1.43 0.48,2.51 0,0.89 -0.1,1.61 -0.31,2.17 -0.2,0.56 -0.59,0.99 -1.16,1.29 -0.57,0.3 -1.37,0.51 -2.42,0.62 -1.05,0.12 -2.42,0.17 -4.12,0.17 h -0.8 v -1.94 h 3.75 c 0.82,0 1.37,-0.1 1.68,-0.31 0.3,-0.2 0.45,-0.59 0.45,-1.16 v -2.39 h -2.95 c -0.82,0 -1.37,0.1 -1.68,0.29 -0.3,0.2 -0.45,0.57 -0.45,1.12 v 7.13 c 0.64,0.18 1.52,0.27 2.63,0.27 0.73,0 1.45,-0.05 2.17,-0.15 0.72,-0.1 1.54,-0.27 2.46,-0.52 l 0.4,2.34 c -0.71,0.27 -1.55,0.47 -2.53,0.61 -0.96,0.15 -1.96,0.22 -2.97,0.22 z"
           class="st0" />
        <path
           fill="#ffffff"
           id="path34"
           d="m 61.71236,143.60154 1.09,-16.62 h 4.36 l 3.32,11.52 h 0.19 l 3.32,-11.52 h 4.36 l 1.09,16.62 h -3.24 l -0.74,-11.97 h -0.19 l -3.4,11.97 h -2.58 l -3.43,-11.97 h -0.16 l -0.74,11.97 z"
           class="st0" />
        <path
           fill="#ffffff"
           id="path36"
           d="m 86.66236,143.89154 c -1.49,0 -2.56,-0.32 -3.22,-0.96 -0.66,-0.64 -0.98,-1.69 -0.98,-3.16 0,-0.89 0.1,-1.61 0.31,-2.17 0.2,-0.56 0.57,-0.99 1.09,-1.29 0.52,-0.3 1.28,-0.51 2.27,-0.62 0.99,-0.12 2.29,-0.17 3.88,-0.17 h 1.3 v 1.94 h -3.78 c -0.82,0 -1.37,0.1 -1.65,0.31 -0.28,0.2 -0.43,0.59 -0.43,1.16 v 2.58 h 2.98 c 0.8,0 1.34,-0.1 1.64,-0.31 0.29,-0.2 0.44,-0.57 0.44,-1.1 v -7.31 c -0.57,-0.18 -1.37,-0.27 -2.39,-0.27 -0.71,0 -1.45,0.05 -2.23,0.16 -0.78,0.11 -1.59,0.27 -2.42,0.51 l -0.43,-2.34 c 0.5,-0.18 1.05,-0.33 1.66,-0.45 0.61,-0.12 1.25,-0.22 1.93,-0.28 0.67,-0.06 1.33,-0.09 1.97,-0.09 1.26,0 2.27,0.13 3.02,0.39 0.75,0.26 1.3,0.67 1.65,1.25 0.35,0.58 0.52,1.34 0.52,2.3 v 9.65 h -1.57 l -0.85,-1.33 c -1.28,1.06 -2.85,1.6 -4.71,1.6 z"
           class="st0" />
        <path
           fill="#ffffff"
           id="path38"
           d="m 103.07236,137.59154 h -1.84 v 6.01 h -3.27 v -17.29 l 3.27,-0.4 v 9.49 h 1.81 l 2.61,-5.11 h 3.43 l -3.32,6.22 3.46,7.07 h -3.38 z"
           class="st0" />
        <path
           fill="#ffffff"
           id="path40"
           d="m 116.47236,143.89154 c -1.06,0 -1.96,-0.12 -2.69,-0.35 -0.73,-0.23 -1.3,-0.61 -1.72,-1.14 -0.42,-0.53 -0.72,-1.24 -0.92,-2.13 -0.2,-0.89 -0.29,-1.99 -0.29,-3.32 0,-1.74 0.19,-3.11 0.57,-4.12 0.38,-1.01 1.01,-1.73 1.88,-2.17 0.87,-0.43 2.04,-0.65 3.51,-0.65 1.44,0 2.55,0.12 3.35,0.36 0.8,0.24 1.36,0.66 1.68,1.25 0.32,0.59 0.48,1.43 0.48,2.51 0,0.89 -0.1,1.61 -0.31,2.17 -0.2,0.56 -0.59,0.99 -1.16,1.29 -0.57,0.3 -1.37,0.51 -2.42,0.62 -1.05,0.12 -2.42,0.17 -4.12,0.17 h -0.8 v -1.94 h 3.75 c 0.82,0 1.37,-0.1 1.68,-0.31 0.3,-0.2 0.45,-0.59 0.45,-1.16 v -2.39 h -2.95 c -0.82,0 -1.37,0.1 -1.68,0.29 -0.3,0.2 -0.45,0.57 -0.45,1.12 v 7.13 c 0.64,0.18 1.52,0.27 2.63,0.27 0.73,0 1.45,-0.05 2.17,-0.15 0.72,-0.1 1.54,-0.27 2.46,-0.52 l 0.4,2.34 c -0.71,0.27 -1.55,0.47 -2.53,0.61 -0.96,0.15 -1.96,0.22 -2.97,0.22 z"
           class="st0" />
        <path
           fill="#ffffff"
           id="path42"
           d="m 127.75236,130.30154 1.04,2.02 c 0.74,-0.67 1.41,-1.2 1.99,-1.58 0.58,-0.38 1.16,-0.66 1.73,-0.84 l 0.29,3.19 c -0.35,0.09 -0.74,0.22 -1.16,0.4 -0.42,0.18 -0.82,0.36 -1.21,0.56 -0.39,0.2 -0.72,0.4 -0.98,0.61 v 8.94 h -3.27 v -13.3 z"
           class="st0" />
        <path
           fill="#ffffff"
           id="path44"
           d="m 134.45236,134.00154 c 0,-1.42 0.43,-2.46 1.28,-3.11 0.85,-0.65 2.18,-0.98 3.99,-0.98 0.83,0 1.64,0.04 2.42,0.13 0.78,0.09 1.54,0.24 2.29,0.45 l -0.43,2.34 c -0.44,-0.12 -0.95,-0.22 -1.53,-0.29 -0.58,-0.07 -1.14,-0.11 -1.69,-0.11 -0.53,0 -1.05,0.02 -1.56,0.07 -0.51,0.04 -0.94,0.1 -1.29,0.17 v 2.63 c 1.47,0.2 2.67,0.4 3.6,0.62 0.93,0.22 1.65,0.49 2.17,0.81 0.51,0.32 0.87,0.72 1.08,1.21 0.2,0.49 0.31,1.09 0.31,1.79 0,1.03 -0.2,1.85 -0.58,2.47 -0.39,0.62 -1.02,1.07 -1.88,1.36 -0.86,0.28 -1.99,0.43 -3.39,0.43 -0.83,0 -1.68,-0.07 -2.54,-0.21 -0.86,-0.14 -1.7,-0.34 -2.51,-0.58 l 0.51,-2.53 c 1.33,0.53 2.77,0.8 4.31,0.8 0.48,0 0.91,-0.02 1.29,-0.07 0.38,-0.04 0.83,-0.13 1.34,-0.25 v -2.66 c -1.56,-0.21 -2.81,-0.43 -3.76,-0.64 -0.95,-0.21 -1.67,-0.47 -2.15,-0.78 -0.49,-0.31 -0.82,-0.71 -1,-1.2 -0.19,-0.48 -0.28,-1.11 -0.28,-1.87 z"
           class="st0" />
      </g>
    </g>
    <path
       fill="#ffffff"
       id="path50"
       d="m 150.73236,91.32154 -2.89,-0.54 c -0.07,-0.01 -0.15,-0.08 -0.17,-0.15 l -0.88,-2.06 c -0.03,-0.06 -0.03,-0.16 0.01,-0.22 l 1.68,-2.45 c 0.04,-0.06 0.03,-0.15 -0.02,-0.2 l -2.1,-2.1 c -0.05,-0.05 -0.14,-0.06 -0.2,-0.02 l -2.49,1.71 c -0.06,0.04 -0.16,0.05 -0.22,0.02 l -2,-0.82 c -0.07,-0.02 -0.13,-0.1 -0.15,-0.17 l -0.56,-2.98 c -0.01,-0.07 -0.08,-0.13 -0.15,-0.13 h -2.97 c -0.07,0 -0.14,0.06 -0.15,0.13 l -0.56,2.98 c -0.01,0.07 -0.08,0.15 -0.15,0.17 l -2,0.82 c -0.06,0.03 -0.17,0.02 -0.22,-0.02 l -2.49,-1.71 c -0.06,-0.04 -0.15,-0.03 -0.2,0.02 l -2.1,2.1 c -0.05,0.05 -0.06,0.14 -0.02,0.2 l 1.68,2.45 c 0.04,0.06 0.05,0.16 0.01,0.22 l -0.88,2.06 c -0.02,0.07 -0.1,0.13 -0.17,0.15 l -2.89,0.54 c -0.07,0.01 -0.13,0.08 -0.13,0.15 v 2.97 c 0,0.07 0.06,0.14 0.13,0.15 l 2.81,0.52 c 0.07,0.01 0.15,0.08 0.17,0.15 l 0.88,2.19 c 0.03,0.06 0.02,0.17 -0.02,0.22 l -1.6,2.33 c -0.04,0.06 -0.03,0.15 0.02,0.2 l 2.1,2.1 c 0.05,0.05 0.14,0.06 0.2,0.02 l 2.29,-1.57 c 0.06,-0.04 0.16,-0.04 0.22,-0.01 l 1.01,0.54 c 0.06,0.03 0.14,0.01 0.17,-0.06 l 2.08,-5.03 c 0.03,-0.07 0,-0.15 -0.06,-0.19 l -0.25,-0.15 c -0.05,-0.03 -0.11,-0.08 -0.16,-0.12 -0.91,-0.58 -1.52,-1.6 -1.52,-2.77 0,-1.81 1.47,-3.28 3.28,-3.28 1.81,0 3.28,1.47 3.28,3.28 0,1.16 -0.6,2.18 -1.52,2.77 -0.05,0.04 -0.11,0.09 -0.16,0.12 l -0.25,0.15 c -0.06,0.04 -0.09,0.12 -0.06,0.19 l 2.08,5.03 c 0.03,0.07 0.1,0.09 0.17,0.06 l 1.01,-0.54 c 0.06,-0.04 0.16,-0.03 0.22,0.01 l 2.29,1.57 c 0.06,0.04 0.15,0.03 0.2,-0.02 l 2.1,-2.1 c 0.05,-0.05 0.06,-0.14 0.02,-0.2 l -1.6,-2.33 c -0.04,-0.06 -0.05,-0.16 -0.02,-0.22 l 0.88,-2.19 c 0.02,-0.07 0.1,-0.14 0.17,-0.15 l 2.81,-0.52 c 0.07,-0.01 0.13,-0.08 0.13,-0.15 v -2.97 c 0.01,-0.07 -0.05,-0.14 -0.12,-0.15"
       class="st0" />
  </g>
</svg>
