<svg width="228" height="229" xmlns="http://www.w3.org/2000/svg">
 <metadata id="metadata523">image/svg+xml</metadata>

 <style type="text/css">.st0{fill:#FFFFFF;}
	.st1{fill:#E8AD35;}
	.st2{fill:#010101;stroke:#F9F9FA;stroke-width:4;stroke-miterlimit:10;}
	.st3{fill:none;}
	.st4{font-family:'MyriadPro-Regular';}
	.st5{font-size:18px;}
	.st6{fill:none;stroke:#000000;stroke-width:0.5;stroke-miterlimit:10;}
	.st7{fill:#AA7C2C;}
	.st8{fill:#E8AD36;}
	.st9{fill:#010101;}
	.st10{font-family:'Roboto-Regular';}
	.st11{font-size:14px;}
	.st12{opacity:0.6;fill:#E8C178;}
	.st13{fill:none;stroke:#E8AD36;stroke-width:4;stroke-miterlimit:10;}
	.st14{fill:none;stroke:#E8AD36;stroke-width:3;stroke-linecap:round;stroke-miterlimit:10;}
	.st15{fill:none;stroke:#E8AD36;stroke-width:4;stroke-linecap:round;stroke-miterlimit:10;}
	.st16{opacity:0.4;fill:#E8AD36;}
	.st17{opacity:0.9;fill:#E8AD36;}
	.st18{opacity:0.72;}
	.st19{opacity:0.7;}
	.st20{fill:#E8C178;}
	.st21{opacity:0.6;fill:#E8AD36;}
	.st22{fill:none;stroke:#E8AD36;stroke-width:3;stroke-miterlimit:10;}
	.st23{fill:#F0CF97;}
	.st24{font-size:12px;}
	.st25{fill:none;stroke:#000000;stroke-miterlimit:10;}
	.st26{opacity:0.8;}</style>
 <g>
  <title>background</title>
  <rect fill="none" id="canvas_background" height="231" width="230" y="-1" x="-1"/>
 </g>
 <g>
  <title>Layer 1</title>
  <circle fill="#e8ad35" stroke-width="3.77953" stroke-linecap="round" stroke-linejoin="round" stroke-miterlimit="4" r="110.3446" cy="114.89154" cx="114.28069" id="path1330"/>
  <g id="g52">
   <polygon fill="#010101" stroke="#f9f9fa" stroke-width="4" stroke-miterlimit="10" id="polygon8" points="158.3123779296875,130.50155639648438 184.17236328125,130.04153442382812 184.17236328125,99.74154663085938 159.662353515625,99.74154663085938 159.662353515625,76.69155883789062 53.702362060546875,76.69155883789062 53.702362060546875,99.74154663085938 53.702362060546875,103.27154541015625 53.702362060546875,122.75155639648438 53.702362060546875,130.04153442382812 45.252349853515625,153.091552734375 157.48236083984375,153.091552734375 " class="st2"/>
   <g id="g48">
    <g id="g46">
     <path fill="#ffffff" id="path10" d="m61.47236,93.39154c0,-1.77 0.1,-3.23 0.31,-4.36c0.2,-1.13 0.56,-2.02 1.08,-2.66c0.51,-0.64 1.22,-1.08 2.13,-1.33c0.9,-0.25 2.07,-0.37 3.51,-0.37c1.42,0 2.58,0.12 3.5,0.37c0.91,0.25 1.63,0.69 2.14,1.33c0.51,0.64 0.87,1.52 1.06,2.66c0.19,1.14 0.29,2.59 0.29,4.36c0,1.77 -0.1,3.22 -0.29,4.35c-0.2,1.13 -0.55,2.01 -1.06,2.65c-0.51,0.64 -1.23,1.08 -2.14,1.33c-0.91,0.25 -2.08,0.37 -3.5,0.37c-1.44,0 -2.61,-0.12 -3.51,-0.37c-0.9,-0.25 -1.61,-0.69 -2.13,-1.33c-0.51,-0.64 -0.87,-1.52 -1.08,-2.65c-0.2,-1.12 -0.31,-2.57 -0.31,-4.35zm3.51,5.91l4.79,0c0.83,0 1.41,-0.13 1.74,-0.4c0.33,-0.27 0.49,-0.74 0.49,-1.41l0,-10.03l-4.81,0c-0.83,0 -1.41,0.13 -1.73,0.4c-0.32,0.27 -0.48,0.74 -0.48,1.41l0,10.03z" class="st0"/>
     <path fill="#ffffff" id="path12" d="m79.19236,106.32154l0,-17.93l1.54,0l1.73,2.87l0,14.71l-3.27,0.35zm6.73,-4.23c-1.1,0 -2.01,-0.1 -2.73,-0.31c-0.72,-0.2 -1.28,-0.57 -1.68,-1.09c-0.4,-0.52 -0.68,-1.24 -0.84,-2.15c-0.16,-0.91 -0.24,-2.08 -0.24,-3.5c0,-1.4 0.08,-2.55 0.24,-3.46c0.16,-0.91 0.44,-1.61 0.84,-2.11c0.4,-0.5 0.96,-0.86 1.68,-1.06c0.72,-0.2 1.63,-0.31 2.73,-0.31c0.98,0 1.79,0.11 2.43,0.33c0.65,0.22 1.16,0.59 1.53,1.1c0.37,0.51 0.64,1.22 0.8,2.13c0.16,0.91 0.24,2.03 0.24,3.38c0,1.37 -0.08,2.5 -0.24,3.4c-0.16,0.9 -0.43,1.63 -0.81,2.17c-0.38,0.54 -0.9,0.92 -1.54,1.14c-0.66,0.23 -1.46,0.34 -2.41,0.34zm-3.46,-2.61l3.8,0c0.46,0 0.78,-0.04 0.94,-0.13c0.17,-0.09 0.25,-0.27 0.25,-0.53l0,-8.11l-3.83,0c-0.44,0 -0.75,0.04 -0.92,0.12c-0.17,0.08 -0.25,0.23 -0.25,0.44l0,8.21l0.01,0z" class="st0"/>
     <path fill="#ffffff" id="path14" d="m99.35236,101.98154c-1.06,0 -1.96,-0.12 -2.69,-0.35c-0.73,-0.23 -1.3,-0.61 -1.72,-1.14c-0.42,-0.53 -0.72,-1.24 -0.92,-2.13c-0.2,-0.89 -0.29,-1.99 -0.29,-3.32c0,-1.74 0.19,-3.11 0.57,-4.12c0.38,-1.01 1.01,-1.73 1.88,-2.17c0.87,-0.43 2.04,-0.65 3.51,-0.65c1.44,0 2.55,0.12 3.35,0.36c0.8,0.24 1.36,0.66 1.68,1.25c0.32,0.59 0.48,1.43 0.48,2.51c0,0.89 -0.1,1.61 -0.31,2.17c-0.2,0.56 -0.59,0.99 -1.16,1.29c-0.57,0.3 -1.37,0.51 -2.42,0.62c-1.05,0.12 -2.42,0.17 -4.12,0.17l-0.8,0l0,-1.94l3.75,0c0.82,0 1.37,-0.1 1.68,-0.31c0.3,-0.2 0.45,-0.59 0.45,-1.16l0,-2.39l-2.95,0c-0.82,0 -1.37,0.1 -1.68,0.29c-0.3,0.2 -0.45,0.57 -0.45,1.12l0,7.13c0.64,0.18 1.52,0.27 2.63,0.27c0.73,0 1.45,-0.05 2.17,-0.15c0.72,-0.1 1.54,-0.27 2.46,-0.52l0.4,2.34c-0.71,0.27 -1.55,0.47 -2.53,0.61c-0.97,0.15 -1.96,0.22 -2.97,0.22z" class="st0"/>
     <path fill="#ffffff" id="path16" d="m109.05236,101.69154l0,-13.3l1.54,0l0.85,1.33c0.69,-0.55 1.45,-0.96 2.27,-1.22c0.82,-0.27 1.75,-0.4 2.78,-0.4c1.24,0 2.19,0.21 2.83,0.62c0.65,0.42 0.97,1.02 0.97,1.82l0,11.14l-3.27,0l0,-10.9l-2.74,0c-0.76,0 -1.28,0.1 -1.56,0.29c-0.28,0.2 -0.41,0.55 -0.41,1.06l0,9.55l-3.26,0l0,0.01z" class="st0"/>
     <path fill="#ffffff" id="path18" d="m65.38236,122.65154l-3.27,0l0,-16.62l3.27,0l0,16.62zm6.68,-7l-7.1,0l0,-2.5l7.1,0l0,2.5zm-0.43,-9.63l3.27,0l0,16.62l-3.27,0l0,-16.62z" class="st0"/>
     <path fill="#ffffff" id="path20" d="m83.07236,122.94154c-1.49,0 -2.56,-0.32 -3.22,-0.96c-0.66,-0.64 -0.98,-1.69 -0.98,-3.16c0,-0.89 0.1,-1.61 0.31,-2.17c0.2,-0.56 0.57,-0.99 1.09,-1.29c0.52,-0.3 1.28,-0.51 2.27,-0.62c0.99,-0.12 2.29,-0.17 3.88,-0.17l1.3,0l0,1.94l-3.78,0c-0.82,0 -1.37,0.1 -1.65,0.31c-0.28,0.2 -0.43,0.59 -0.43,1.16l0,2.58l2.98,0c0.8,0 1.34,-0.1 1.64,-0.31c0.29,-0.2 0.44,-0.57 0.44,-1.1l0,-7.31c-0.57,-0.18 -1.37,-0.27 -2.39,-0.27c-0.71,0 -1.45,0.05 -2.23,0.16c-0.78,0.11 -1.59,0.27 -2.42,0.51l-0.43,-2.34c0.5,-0.18 1.05,-0.33 1.66,-0.45c0.61,-0.12 1.25,-0.22 1.93,-0.28c0.67,-0.06 1.33,-0.09 1.97,-0.09c1.26,0 2.27,0.13 3.02,0.39c0.75,0.26 1.3,0.67 1.65,1.25c0.35,0.58 0.52,1.34 0.52,2.3l0,9.65l-1.57,0l-0.85,-1.33c-1.28,1.06 -2.85,1.6 -4.71,1.6z" class="st0"/>
     <path fill="#ffffff" id="path22" d="m96.47236,109.35154l1.04,2.02c0.74,-0.67 1.41,-1.2 1.99,-1.58c0.58,-0.38 1.16,-0.66 1.73,-0.84l0.29,3.19c-0.35,0.09 -0.74,0.22 -1.16,0.4c-0.42,0.18 -0.82,0.36 -1.21,0.56c-0.39,0.2 -0.72,0.4 -0.98,0.61l0,8.94l-3.27,0l0,-13.3l1.57,0z" class="st0"/>
     <path fill="#ffffff" id="path24" d="m108.79236,109.06154c1.12,0 2.03,0.1 2.74,0.31c0.71,0.2 1.26,0.56 1.66,1.06c0.4,0.5 0.68,1.21 0.84,2.11c0.16,0.9 0.24,2.06 0.24,3.46c0,1.44 -0.08,2.61 -0.24,3.52c-0.16,0.91 -0.44,1.63 -0.84,2.14c-0.4,0.51 -0.95,0.88 -1.66,1.09c-0.71,0.21 -1.62,0.31 -2.74,0.29c-0.98,-0.02 -1.79,-0.13 -2.43,-0.35c-0.65,-0.21 -1.16,-0.58 -1.53,-1.12c-0.37,-0.53 -0.64,-1.25 -0.8,-2.15c-0.16,-0.9 -0.24,-2.05 -0.24,-3.43c0,-1.35 0.08,-2.47 0.24,-3.38c0.16,-0.91 0.43,-1.62 0.81,-2.14c0.38,-0.52 0.9,-0.9 1.54,-1.12c0.65,-0.21 1.45,-0.31 2.41,-0.29zm3.45,2.6l-3.8,0c-0.46,0 -0.78,0.04 -0.94,0.13c-0.17,0.09 -0.25,0.27 -0.25,0.53l0,8.11l3.83,0c0.46,0 0.77,-0.04 0.93,-0.13c0.16,-0.09 0.24,-0.27 0.24,-0.53l0,-8.11l-0.01,0zm3.28,-6.94l0,17.93l-1.54,0l-1.73,-2.87l0,-14.71l3.27,-0.35z" class="st0"/>
     <path fill="#ffffff" id="path26" d="m121.45236,122.65154l-3.11,-13.3l3.22,0l2.26,10.48l0.27,0l2.29,-10.48l2.53,0l-3.01,13.3l-4.45,0zm8.35,0l-3.03,-13.3l2.53,0l2.31,10.48l0.27,0l2.23,-10.48l3.22,0l-3.08,13.3l-4.45,0z" class="st0"/>
     <path fill="#ffffff" id="path28" d="m143.49236,122.94154c-1.49,0 -2.56,-0.32 -3.22,-0.96c-0.66,-0.64 -0.98,-1.69 -0.98,-3.16c0,-0.89 0.1,-1.61 0.31,-2.17c0.2,-0.56 0.57,-0.99 1.09,-1.29c0.52,-0.3 1.28,-0.51 2.27,-0.62c0.99,-0.12 2.29,-0.17 3.88,-0.17l1.3,0l0,1.94l-3.78,0c-0.82,0 -1.37,0.1 -1.65,0.31c-0.28,0.2 -0.43,0.59 -0.43,1.16l0,2.58l2.98,0c0.8,0 1.34,-0.1 1.64,-0.31c0.29,-0.2 0.44,-0.57 0.44,-1.1l0,-7.31c-0.57,-0.18 -1.37,-0.27 -2.39,-0.27c-0.71,0 -1.45,0.05 -2.23,0.16c-0.78,0.11 -1.59,0.27 -2.42,0.51l-0.43,-2.34c0.5,-0.18 1.05,-0.33 1.66,-0.45c0.61,-0.12 1.25,-0.22 1.93,-0.28c0.67,-0.06 1.33,-0.09 1.97,-0.09c1.26,0 2.27,0.13 3.02,0.39c0.75,0.26 1.3,0.67 1.65,1.25c0.35,0.58 0.52,1.34 0.52,2.3l0,9.65l-1.57,0l-0.85,-1.33c-1.28,1.06 -2.84,1.6 -4.71,1.6z" class="st0"/>
     <path fill="#ffffff" id="path30" d="m156.90236,109.35154l1.04,2.02c0.74,-0.67 1.41,-1.2 1.99,-1.58c0.58,-0.38 1.16,-0.66 1.73,-0.84l0.29,3.19c-0.35,0.09 -0.74,0.22 -1.16,0.4c-0.42,0.18 -0.82,0.36 -1.21,0.56c-0.39,0.2 -0.72,0.4 -0.98,0.61l0,8.94l-3.27,0l0,-13.3l1.57,0z" class="st0"/>
     <path fill="#ffffff" id="path32" d="m169.82236,122.94154c-1.06,0 -1.96,-0.12 -2.69,-0.35c-0.73,-0.23 -1.3,-0.61 -1.72,-1.14c-0.42,-0.53 -0.72,-1.24 -0.92,-2.13c-0.2,-0.89 -0.29,-1.99 -0.29,-3.32c0,-1.74 0.19,-3.11 0.57,-4.12c0.38,-1.01 1.01,-1.73 1.88,-2.17c0.87,-0.43 2.04,-0.65 3.51,-0.65c1.44,0 2.55,0.12 3.35,0.36c0.8,0.24 1.36,0.66 1.68,1.25c0.32,0.59 0.48,1.43 0.48,2.51c0,0.89 -0.1,1.61 -0.31,2.17c-0.2,0.56 -0.59,0.99 -1.16,1.29c-0.57,0.3 -1.37,0.51 -2.42,0.62c-1.05,0.12 -2.42,0.17 -4.12,0.17l-0.8,0l0,-1.94l3.75,0c0.82,0 1.37,-0.1 1.68,-0.31c0.3,-0.2 0.45,-0.59 0.45,-1.16l0,-2.39l-2.95,0c-0.82,0 -1.37,0.1 -1.68,0.29c-0.3,0.2 -0.45,0.57 -0.45,1.12l0,7.13c0.64,0.18 1.52,0.27 2.63,0.27c0.73,0 1.45,-0.05 2.17,-0.15c0.72,-0.1 1.54,-0.27 2.46,-0.52l0.4,2.34c-0.71,0.27 -1.55,0.47 -2.53,0.61c-0.96,0.15 -1.96,0.22 -2.97,0.22z" class="st0"/>
     <path fill="#ffffff" id="path34" d="m61.71236,143.60154l1.09,-16.62l4.36,0l3.32,11.52l0.19,0l3.32,-11.52l4.36,0l1.09,16.62l-3.24,0l-0.74,-11.97l-0.19,0l-3.4,11.97l-2.58,0l-3.43,-11.97l-0.16,0l-0.74,11.97l-3.25,0z" class="st0"/>
     <path fill="#ffffff" id="path36" d="m86.66236,143.89154c-1.49,0 -2.56,-0.32 -3.22,-0.96c-0.66,-0.64 -0.98,-1.69 -0.98,-3.16c0,-0.89 0.1,-1.61 0.31,-2.17c0.2,-0.56 0.57,-0.99 1.09,-1.29c0.52,-0.3 1.28,-0.51 2.27,-0.62c0.99,-0.12 2.29,-0.17 3.88,-0.17l1.3,0l0,1.94l-3.78,0c-0.82,0 -1.37,0.1 -1.65,0.31c-0.28,0.2 -0.43,0.59 -0.43,1.16l0,2.58l2.98,0c0.8,0 1.34,-0.1 1.64,-0.31c0.29,-0.2 0.44,-0.57 0.44,-1.1l0,-7.31c-0.57,-0.18 -1.37,-0.27 -2.39,-0.27c-0.71,0 -1.45,0.05 -2.23,0.16c-0.78,0.11 -1.59,0.27 -2.42,0.51l-0.43,-2.34c0.5,-0.18 1.05,-0.33 1.66,-0.45c0.61,-0.12 1.25,-0.22 1.93,-0.28c0.67,-0.06 1.33,-0.09 1.97,-0.09c1.26,0 2.27,0.13 3.02,0.39c0.75,0.26 1.3,0.67 1.65,1.25c0.35,0.58 0.52,1.34 0.52,2.3l0,9.65l-1.57,0l-0.85,-1.33c-1.28,1.06 -2.85,1.6 -4.71,1.6z" class="st0"/>
     <path fill="#ffffff" id="path38" d="m103.07236,137.59154l-1.84,0l0,6.01l-3.27,0l0,-17.29l3.27,-0.4l0,9.49l1.81,0l2.61,-5.11l3.43,0l-3.32,6.22l3.46,7.07l-3.38,0l-2.77,-5.99z" class="st0"/>
     <path fill="#ffffff" id="path40" d="m116.47236,143.89154c-1.06,0 -1.96,-0.12 -2.69,-0.35c-0.73,-0.23 -1.3,-0.61 -1.72,-1.14c-0.42,-0.53 -0.72,-1.24 -0.92,-2.13c-0.2,-0.89 -0.29,-1.99 -0.29,-3.32c0,-1.74 0.19,-3.11 0.57,-4.12c0.38,-1.01 1.01,-1.73 1.88,-2.17c0.87,-0.43 2.04,-0.65 3.51,-0.65c1.44,0 2.55,0.12 3.35,0.36c0.8,0.24 1.36,0.66 1.68,1.25c0.32,0.59 0.48,1.43 0.48,2.51c0,0.89 -0.1,1.61 -0.31,2.17c-0.2,0.56 -0.59,0.99 -1.16,1.29c-0.57,0.3 -1.37,0.51 -2.42,0.62c-1.05,0.12 -2.42,0.17 -4.12,0.17l-0.8,0l0,-1.94l3.75,0c0.82,0 1.37,-0.1 1.68,-0.31c0.3,-0.2 0.45,-0.59 0.45,-1.16l0,-2.39l-2.95,0c-0.82,0 -1.37,0.1 -1.68,0.29c-0.3,0.2 -0.45,0.57 -0.45,1.12l0,7.13c0.64,0.18 1.52,0.27 2.63,0.27c0.73,0 1.45,-0.05 2.17,-0.15c0.72,-0.1 1.54,-0.27 2.46,-0.52l0.4,2.34c-0.71,0.27 -1.55,0.47 -2.53,0.61c-0.96,0.15 -1.96,0.22 -2.97,0.22z" class="st0"/>
     <path fill="#ffffff" id="path42" d="m127.75236,130.30154l1.04,2.02c0.74,-0.67 1.41,-1.2 1.99,-1.58c0.58,-0.38 1.16,-0.66 1.73,-0.84l0.29,3.19c-0.35,0.09 -0.74,0.22 -1.16,0.4c-0.42,0.18 -0.82,0.36 -1.21,0.56c-0.39,0.2 -0.72,0.4 -0.98,0.61l0,8.94l-3.27,0l0,-13.3l1.57,0z" class="st0"/>
     <path fill="#ffffff" id="path44" d="m134.45236,134.00154c0,-1.42 0.43,-2.46 1.28,-3.11c0.85,-0.65 2.18,-0.98 3.99,-0.98c0.83,0 1.64,0.04 2.42,0.13c0.78,0.09 1.54,0.24 2.29,0.45l-0.43,2.34c-0.44,-0.12 -0.95,-0.22 -1.53,-0.29c-0.58,-0.07 -1.14,-0.11 -1.69,-0.11c-0.53,0 -1.05,0.02 -1.56,0.07c-0.51,0.04 -0.94,0.1 -1.29,0.17l0,2.63c1.47,0.2 2.67,0.4 3.6,0.62c0.93,0.22 1.65,0.49 2.17,0.81c0.51,0.32 0.87,0.72 1.08,1.21c0.2,0.49 0.31,1.09 0.31,1.79c0,1.03 -0.2,1.85 -0.58,2.47c-0.39,0.62 -1.02,1.07 -1.88,1.36c-0.86,0.28 -1.99,0.43 -3.39,0.43c-0.83,0 -1.68,-0.07 -2.54,-0.21c-0.86,-0.14 -1.7,-0.34 -2.51,-0.58l0.51,-2.53c1.33,0.53 2.77,0.8 4.31,0.8c0.48,0 0.91,-0.02 1.29,-0.07c0.38,-0.04 0.83,-0.13 1.34,-0.25l0,-2.66c-1.56,-0.21 -2.81,-0.43 -3.76,-0.64c-0.95,-0.21 -1.67,-0.47 -2.15,-0.78c-0.49,-0.31 -0.82,-0.71 -1,-1.2c-0.19,-0.48 -0.28,-1.11 -0.28,-1.87z" class="st0"/>
    </g>
   </g>
   <path fill="#ffffff" id="path50" d="m150.73236,91.32154l-2.89,-0.54c-0.07,-0.01 -0.15,-0.08 -0.17,-0.15l-0.88,-2.06c-0.03,-0.06 -0.03,-0.16 0.01,-0.22l1.68,-2.45c0.04,-0.06 0.03,-0.15 -0.02,-0.2l-2.1,-2.1c-0.05,-0.05 -0.14,-0.06 -0.2,-0.02l-2.49,1.71c-0.06,0.04 -0.16,0.05 -0.22,0.02l-2,-0.82c-0.07,-0.02 -0.13,-0.1 -0.15,-0.17l-0.56,-2.98c-0.01,-0.07 -0.08,-0.13 -0.15,-0.13l-2.97,0c-0.07,0 -0.14,0.06 -0.15,0.13l-0.56,2.98c-0.01,0.07 -0.08,0.15 -0.15,0.17l-2,0.82c-0.06,0.03 -0.17,0.02 -0.22,-0.02l-2.49,-1.71c-0.06,-0.04 -0.15,-0.03 -0.2,0.02l-2.1,2.1c-0.05,0.05 -0.06,0.14 -0.02,0.2l1.68,2.45c0.04,0.06 0.05,0.16 0.01,0.22l-0.88,2.06c-0.02,0.07 -0.1,0.13 -0.17,0.15l-2.89,0.54c-0.07,0.01 -0.13,0.08 -0.13,0.15l0,2.97c0,0.07 0.06,0.14 0.13,0.15l2.81,0.52c0.07,0.01 0.15,0.08 0.17,0.15l0.88,2.19c0.03,0.06 0.02,0.17 -0.02,0.22l-1.6,2.33c-0.04,0.06 -0.03,0.15 0.02,0.2l2.1,2.1c0.05,0.05 0.14,0.06 0.2,0.02l2.29,-1.57c0.06,-0.04 0.16,-0.04 0.22,-0.01l1.01,0.54c0.06,0.03 0.14,0.01 0.17,-0.06l2.08,-5.03c0.03,-0.07 0,-0.15 -0.06,-0.19l-0.25,-0.15c-0.05,-0.03 -0.11,-0.08 -0.16,-0.12c-0.91,-0.58 -1.52,-1.6 -1.52,-2.77c0,-1.81 1.47,-3.28 3.28,-3.28c1.81,0 3.28,1.47 3.28,3.28c0,1.16 -0.6,2.18 -1.52,2.77c-0.05,0.04 -0.11,0.09 -0.16,0.12l-0.25,0.15c-0.06,0.04 -0.09,0.12 -0.06,0.19l2.08,5.03c0.03,0.07 0.1,0.09 0.17,0.06l1.01,-0.54c0.06,-0.04 0.16,-0.03 0.22,0.01l2.29,1.57c0.06,0.04 0.15,0.03 0.2,-0.02l2.1,-2.1c0.05,-0.05 0.06,-0.14 0.02,-0.2l-1.6,-2.33c-0.04,-0.06 -0.05,-0.16 -0.02,-0.22l0.88,-2.19c0.02,-0.07 0.1,-0.14 0.17,-0.15l2.81,-0.52c0.07,-0.01 0.13,-0.08 0.13,-0.15l0,-2.97c0.01,-0.07 -0.05,-0.14 -0.12,-0.15" class="st0"/>
  </g>
 </g>
</svg>